<svg width="21" height="21" viewBox="0 0 21 21" fill="none" xmlns="http://www.w3.org/2000/svg">
<path fill-rule="evenodd" clip-rule="evenodd" d="M3.88567 1.3999H7.0115C7.13863 1.3999 7.26274 1.43867 7.36726 1.51103C7.47178 1.58339 7.55176 1.68591 7.5965 1.8049L8.80984 5.0299C8.84983 5.13655 8.85991 5.2521 8.839 5.36407L8.23067 8.62407C8.97817 10.3807 10.2123 11.5616 12.2582 12.6207L15.479 11.9957C15.5935 11.9737 15.7118 11.9841 15.8207 12.0257L19.0557 13.2591C19.1739 13.3041 19.2757 13.384 19.3476 13.4882C19.4195 13.5923 19.458 13.7159 19.4582 13.8424V16.8291C19.4582 18.1841 18.2648 19.2832 16.8682 18.9791C14.324 18.4257 9.60984 17.0182 6.30817 13.7166C3.14484 10.5541 2.08484 6.18574 1.729 3.8249C1.52484 2.47657 2.60567 1.3999 3.88567 1.3999Z" fill="white"/>
</svg>
